<svg width="375" height="495" viewBox="0 0 375 495" fill="none" xmlns="http://www.w3.org/2000/svg">
<rect x="-39.5" y="12" width="446" height="467" fill="white"/>
<path d="M195.5 94.1944L148 27.1944L136 12.5H223.5L255 63.5L195.5 94.1944Z" fill="#F5F5F5"/>
<path d="M270 56L243.5 12.5H354.5L270 56Z" fill="#F5F5F5"/>
<path d="M324.5 142.5L280 72L386.5 18.5V100L324.5 142.5Z" fill="#F5F5F5"/>
<path d="M308.5 152.5L265 80L205.957 109.5L260.457 185L308.5 152.5Z" fill="#F5F5F5"/>
<path d="M233 203.5L177 125L109 159L173.5 244L233 203.5Z" fill="#F5F5F5"/>
<path d="M138.5 231.5L93 167.5L32 199L38 298.5L138.5 231.5Z" fill="#F5F5F5"/>
<path d="M20.5 310L14 207.5L-22.5 227V339L20.5 310Z" fill="#F5F5F5"/>
<path d="M74 400L30.5 325.5L-22.5 359.5V461.5L74 400Z" fill="#F5F5F5"/>
<path d="M91.5 390L47.5 314.5L149 246.5L204.5 318L91.5 390Z" fill="#F5F5F5"/>
<path d="M243.5 217.5L185 258L223.5 306L280.5 269.5L243.5 217.5Z" fill="#F5F5F5"/>
<path d="M308.5 251.632L270.5 199.132L317 167L381 181V206.5L308.5 251.632Z" fill="#F5F5F5"/>
<path d="M381 162.5L334 155.5L381 122.5V162.5Z" fill="#F5F5F5"/>
<path d="M383 355V245.5L329 280L383 355Z" fill="#F5F5F5"/>
<path d="M301 297.5L357 376L254.5 447L193 366.5L301 297.5Z" fill="#F5F5F5"/>
<path d="M131 458H237.5L174 378.5L108.5 419.5L131 458Z" fill="#F5F5F5"/>
<path d="M107.5 457.5L91.5 430L49 457.5H107.5Z" fill="#F5F5F5"/>
<path d="M195.5 94.1944L148 27.1944L136 12.5H223.5L255 63.5L195.5 94.1944Z" stroke="#E7E7E7"/>
<path d="M270 56L243.5 12.5H354.5L270 56Z" stroke="#E7E7E7"/>
<path d="M324.5 142.5L280 72L386.5 18.5V100L324.5 142.5Z" stroke="#E7E7E7"/>
<path d="M308.5 152.5L265 80L205.957 109.5L260.457 185L308.5 152.5Z" stroke="#E7E7E7"/>
<path d="M233 203.5L177 125L109 159L173.5 244L233 203.5Z" stroke="#E7E7E7"/>
<path d="M138.5 231.5L93 167.5L32 199L38 298.5L138.5 231.5Z" stroke="#E7E7E7"/>
<path d="M20.5 310L14 207.5L-22.5 227V339L20.5 310Z" stroke="#E7E7E7"/>
<path d="M74 400L30.5 325.5L-22.5 359.5V461.5L74 400Z" stroke="#E7E7E7"/>
<path d="M91.5 390L47.5 314.5L149 246.5L204.5 318L91.5 390Z" stroke="#E7E7E7"/>
<path d="M243.5 217.5L185 258L223.5 306L280.5 269.5L243.5 217.5Z" stroke="#E7E7E7"/>
<path d="M308.5 251.632L270.5 199.132L317 167L381 181V206.5L308.5 251.632Z" stroke="#E7E7E7"/>
<path d="M381 162.5L334 155.5L381 122.5V162.5Z" stroke="#E7E7E7"/>
<path d="M383 355V245.5L329 280L383 355Z" stroke="#E7E7E7"/>
<path d="M301 297.5L357 376L254.5 447L193 366.5L301 297.5Z" stroke="#E7E7E7"/>
<path d="M131 458H237.5L174 378.5L108.5 419.5L131 458Z" stroke="#E7E7E7"/>
<path d="M107.5 457.5L91.5 430L49 457.5H107.5Z" stroke="#E7E7E7"/>
<path d="M272.5 457L367.5 391H383.5V457L308 478.5L272.5 457Z" fill="#F5F5F5" stroke="#E7E7E7"/>
<path d="M30.5 177.5L24.5 76.5L116 40.5L165.5 109.5L30.5 177.5Z" fill="#F5F5F5" stroke="#E7E7E7"/>
<path d="M12.5 186.5L5.5 84.5L-22.5 95V204.5L12.5 186.5Z" fill="#F5F5F5" stroke="#E7E7E7"/>
<path d="M23 57.5L21 16L96 12.5L105.5 26.5L23 57.5Z" fill="#F5F5F5" stroke="#E7E7E7"/>
<path d="M-24.5 16H2L5 64L-24.5 74.5V16Z" fill="#F5F5F5" stroke="#E7E7E7"/>
<path d="M128 0L308.519 251.887L414.5 185V227L329.154 280.68L407.5 390L385.5 417L300.721 298.564L-10 494L-45 475L280.132 269.802L87 0H128Z" fill="#FFFBE9"/>
<path d="M128 0L128.406 -0.291259L128.257 -0.5H128V0ZM308.519 251.887L308.113 252.178L308.387 252.561L308.786 252.31L308.519 251.887ZM329.154 280.68L328.888 280.257L328.438 280.54L328.748 280.972L329.154 280.68ZM407.5 390L407.888 390.316L408.129 390.019L407.906 389.709L407.5 390ZM385.5 417L385.093 417.291L385.474 417.823L385.888 417.316L385.5 417ZM300.721 298.564L301.127 298.273L300.853 297.89L300.454 298.141L300.721 298.564ZM280.132 269.802L280.399 270.225L280.847 269.942L280.539 269.511L280.132 269.802ZM87 0V-0.5H86.0272L86.5934 0.291034L87 0ZM-45 475L-45.2669 474.577L-45.9882 475.032L-45.2385 475.439L-45 475ZM414.5 185H415V184.093L414.233 184.577L414.5 185ZM414.5 227L414.766 227.423L415 227.276V227H414.5ZM-10 494L-10.2385 494.439L-9.98143 494.579L-9.73379 494.423L-10 494ZM127.594 0.291259L308.113 252.178L308.925 251.596L128.406 -0.291259L127.594 0.291259ZM328.748 280.972L407.094 390.291L407.906 389.709L329.561 280.389L328.748 280.972ZM407.112 389.684L385.112 416.684L385.888 417.316L407.888 390.316L407.112 389.684ZM385.907 416.709L301.127 298.273L300.314 298.855L385.093 417.291L385.907 416.709ZM280.539 269.511L87.4066 -0.291034L86.5934 0.291034L279.725 270.094L280.539 269.511ZM87 0.5H128V-0.5H87V0.5ZM-44.7331 475.423L280.399 270.225L279.865 269.38L-45.2669 474.577L-44.7331 475.423ZM308.786 252.31L414.767 185.423L414.233 184.577L308.252 251.464L308.786 252.31ZM414 185V227H415V185H414ZM414.234 226.577L328.888 280.257L329.42 281.104L414.766 227.423L414.234 226.577ZM300.454 298.141L-10.2662 493.577L-9.73379 494.423L300.987 298.988L300.454 298.141ZM-9.76146 493.561L-44.7615 474.561L-45.2385 475.439L-10.2385 494.439L-9.76146 493.561Z" fill="#FFE56D"/>
<path d="M106.6 26.5L105.5 27L114.5 40.5L116.5 40L106.6 26.5Z" fill="white"/>
<path d="M166.1 109.6L164.5 110.5L175 125.5L176.8 124.5L166.1 109.6Z" fill="white"/>
<path d="M197.1 94L195.3 94.8L205.6 109.15L207.3 108.194L197.1 94Z" fill="white"/>
<path d="M233.5 203.8L232.5 204.4L242 217.9L243.1 217.2L233.5 203.8Z" fill="white"/>
<path d="M221 304L203.5 315.5L205 318L223.2 306.4L221 304Z" fill="white"/>
<path d="M90 388.5L74 399L74.5 400.2L90.8 389.9L90 388.5Z" fill="white"/>
<path d="M107.9 419.2L91.75 429.4L92.4 430.5L108.7 421L107.9 419.2Z" fill="white"/>
<path d="M192.5 366L174 377.6L175 379L193 367.5L192.5 366Z" fill="white"/>
<path d="M261.5 185L260.4 185.6L269.8 198.8L271.2 198.044L261.5 185Z" fill="white"/>
<path d="M150.601 227.551L150.647 227.61L147.211 232.439L147.913 233.329L155.296 230.176L154.522 229.194L148.983 231.754L148.936 231.695L152.59 226.743L151.898 225.865L146.236 228.27L146.19 228.211L149.97 223.419L149.195 222.436L144.402 228.875L145.106 229.769L150.601 227.551ZM151.652 236.659C151.263 236.165 151.221 235.617 151.634 235.291C152.039 234.972 152.48 235.09 153.021 235.689L153.977 236.755L153.594 237.057C153.024 237.506 152.191 237.342 151.652 236.659ZM150.706 237.029C151.181 237.632 151.838 237.928 152.514 237.84L152.571 237.911L151.925 238.42L152.614 239.293L155.752 236.819C156.722 236.055 156.784 234.953 155.876 233.801C155.055 232.759 153.963 232.416 153.101 232.945L153.793 233.822C154.198 233.668 154.659 233.871 155.058 234.378C155.547 234.998 155.526 235.534 155.04 235.917L154.644 236.229L153.591 235.041C152.663 234.002 151.701 233.762 150.874 234.414C150.034 235.075 150.007 236.143 150.706 237.029ZM156.962 238.033C156.278 238.572 156.205 239.286 156.687 240.322L157.133 241.27C157.386 241.816 157.378 242.171 157.104 242.387C156.737 242.676 156.168 242.475 155.722 241.909C155.29 241.361 155.243 240.851 155.508 240.458L154.793 239.551C154.042 240.272 154.11 241.374 154.972 242.467C155.836 243.564 157.049 243.914 157.914 243.232C158.589 242.7 158.642 241.995 158.156 240.962L157.731 240.059C157.453 239.472 157.443 239.103 157.717 238.887C158.076 238.605 158.619 238.799 159.018 239.305C159.423 239.82 159.467 240.318 159.196 240.669L159.881 241.538C160.621 240.811 160.57 239.757 159.756 238.723C158.938 237.686 157.776 237.391 156.962 238.033ZM157.573 245.585L158.288 246.492L160.971 244.378C161.667 243.829 162.461 243.873 163.046 244.616C163.552 245.257 163.45 245.891 162.716 246.47L159.974 248.631L160.689 249.538L163.654 247.2C164.747 246.339 164.891 245.247 164.12 244.269C163.575 243.577 162.884 243.335 162.194 243.517L162.137 243.445L164.668 241.45L163.96 240.551L157.573 245.585ZM161.829 250.984L162.54 251.887L167.134 248.266L166.422 247.363L161.829 250.984ZM167.584 247.179C167.85 247.517 168.286 247.576 168.599 247.33C168.915 247.081 168.959 246.642 168.693 246.305C168.427 245.968 167.991 245.908 167.674 246.158C167.362 246.404 167.318 246.842 167.584 247.179ZM163.71 253.371L164.425 254.278L167.112 252.16C167.829 251.595 168.612 251.668 169.141 252.339C169.669 253.01 169.555 253.619 168.817 254.201L166.071 256.366L166.786 257.273L169.76 254.929C170.852 254.067 171.022 253.017 170.214 251.992C169.669 251.3 169.002 251.087 168.315 251.266L168.262 251.198L168.992 250.623L168.304 249.75L163.71 253.371ZM170.281 259.954C169.665 259.174 169.906 258.273 170.821 257.551C171.737 256.83 172.669 256.806 173.284 257.587C173.892 258.358 173.678 259.293 172.763 260.015C171.844 260.739 170.892 260.73 170.281 259.954ZM167.684 262.021C168.708 263.321 170.023 263.618 171.073 262.79L175.705 259.139L175.02 258.27L174.286 258.849L174.229 258.777C174.524 258.127 174.401 257.329 173.902 256.696C172.978 255.523 171.479 255.514 170.079 256.618C168.704 257.702 168.369 259.142 169.293 260.315C169.792 260.948 170.465 261.238 171.182 261.124L171.235 261.191L170.354 261.886C169.746 262.365 169.035 262.201 168.44 261.446C167.958 260.834 167.871 260.28 168.144 259.942L167.413 259.014C166.709 259.726 166.779 260.874 167.684 262.021ZM178.257 260.026L177.093 260.944L176.517 260.214L175.754 260.816L176.329 261.545L173.735 263.59C172.849 264.288 172.811 264.969 173.605 265.977C173.745 266.154 173.899 266.306 174.041 266.434L174.796 265.838C174.683 265.722 174.612 265.648 174.502 265.509C174.146 265.058 174.201 264.693 174.682 264.314L177.044 262.452L177.829 263.448L178.592 262.846L177.808 261.851L178.972 260.933L178.257 260.026ZM176.381 269.628C177.438 270.97 178.985 271.084 180.474 269.91C181.955 268.743 182.206 267.205 181.152 265.868C180.095 264.526 178.54 264.411 177.06 265.578C175.571 266.752 175.32 268.283 176.381 269.628ZM177.187 268.993C176.565 268.204 176.794 267.306 177.798 266.515C178.793 265.73 179.724 265.714 180.346 266.503C180.965 267.287 180.735 268.193 179.739 268.978C178.74 269.766 177.805 269.778 177.187 268.993ZM179.156 272.966L179.871 273.873L182.558 271.755C183.275 271.19 184.058 271.263 184.586 271.934C185.115 272.605 185.001 273.215 184.262 273.796L181.516 275.961L182.231 276.868L185.205 274.524C186.298 273.663 186.468 272.612 185.66 271.587C185.115 270.895 184.448 270.682 183.761 270.861L183.708 270.794L184.438 270.218L183.749 269.345L179.156 272.966Z" fill="#5A5A5A"/>
<path d="M199.321 239.671C200.178 240.764 201.631 240.839 203.047 239.865C204.561 238.824 204.981 237.407 204.141 236.185C203.48 235.225 202.575 235.066 201.055 235.662L200.233 235.973C199.267 236.351 198.751 236.321 198.437 235.865C198.041 235.29 198.305 234.555 199.088 234.016C199.831 233.504 200.597 233.518 201.095 234.043L202.06 233.379C201.262 232.344 199.795 232.238 198.498 233.131C197.105 234.09 196.696 235.486 197.478 236.623C198.124 237.561 199.034 237.756 200.375 237.231L201.335 236.864C202.317 236.482 202.889 236.518 203.224 237.005C203.614 237.571 203.313 238.385 202.517 238.933C201.663 239.52 200.805 239.543 200.304 238.995L199.321 239.671ZM202.95 230.837L203.79 232.058L203.025 232.585L203.576 233.386L204.341 232.859L206.214 235.58C206.853 236.51 207.529 236.592 208.587 235.864C208.773 235.737 208.934 235.593 209.071 235.46L208.526 234.667C208.402 234.772 208.324 234.839 208.178 234.939C207.705 235.265 207.345 235.187 206.998 234.682L205.293 232.205L206.337 231.486L205.786 230.685L204.742 231.404L203.901 230.182L202.95 230.837ZM211.443 232.797C210.925 233.153 210.376 233.16 210.077 232.726C209.785 232.301 209.931 231.869 210.564 231.368L211.689 230.483L211.966 230.885C212.377 231.483 212.16 232.304 211.443 232.797ZM211.751 233.765C212.384 233.33 212.721 232.693 212.677 232.013L212.752 231.961L213.218 232.638L214.134 232.008L211.869 228.716C211.169 227.698 210.073 227.566 208.865 228.397C207.772 229.149 207.359 230.216 207.831 231.11L208.751 230.477C208.623 230.063 208.856 229.616 209.387 229.25C210.038 228.803 210.572 228.859 210.922 229.368L211.208 229.784L209.955 230.757C208.857 231.616 208.555 232.561 209.152 233.428C209.758 234.309 210.822 234.405 211.751 233.765ZM211.842 224.718L212.683 225.94L211.917 226.466L212.468 227.267L213.234 226.74L215.106 229.462C215.746 230.391 216.422 230.473 217.479 229.746C217.665 229.618 217.827 229.474 217.963 229.341L217.418 228.549C217.295 228.653 217.217 228.72 217.071 228.821C216.597 229.146 216.237 229.068 215.89 228.564L214.185 226.086L215.229 225.367L214.678 224.566L213.634 225.285L212.794 224.064L211.842 224.718ZM218.359 223.057C219.063 222.573 219.861 222.748 220.404 223.489L217.97 225.164C217.506 224.375 217.656 223.541 218.359 223.057ZM221.468 225.045C221.55 225.543 221.299 226.022 220.724 226.418C219.963 226.942 219.103 226.744 218.491 225.92L218.454 225.867L221.857 223.526L221.628 223.194C220.587 221.681 219.147 221.322 217.807 222.245C216.448 223.179 216.258 224.751 217.318 226.291C218.377 227.831 219.874 228.196 221.254 227.246C222.356 226.488 222.761 225.427 222.384 224.415L221.468 225.045Z" fill="#5A5A5A"/>
<path d="M210.151 92.7047L213.662 99.6143L216.157 98.3466C218.216 97.3003 218.763 95.4255 217.641 93.2181C216.537 91.0442 214.695 90.3956 212.646 91.437L210.151 92.7047ZM211.72 93.1365L213.022 92.4746C214.454 91.7471 215.764 92.2262 216.557 93.7872C217.362 95.3721 216.987 96.6957 215.541 97.4306L214.238 98.0924L211.72 93.1365ZM220.791 90.4068C221.552 90.0199 222.32 90.2983 222.76 91.105L220.127 92.4432C219.77 91.6 220.029 90.7936 220.791 90.4068ZM223.609 92.7881C223.625 93.2924 223.313 93.734 222.69 94.0504C221.867 94.4689 221.041 94.1596 220.543 93.262L220.514 93.2046L224.196 91.3334L224.013 90.9743C223.181 89.3367 221.801 88.7908 220.35 89.5281C218.88 90.2751 218.484 91.8078 219.331 93.4741C220.178 95.1404 221.613 95.7004 223.107 94.9412C224.299 94.3353 224.841 93.3374 224.601 92.2844L223.609 92.7881ZM228.093 91.2989C227.533 91.5835 226.987 91.5174 226.749 91.0482C226.515 90.5885 226.717 90.1788 227.411 89.766L228.643 89.0373L228.865 89.4731C229.193 90.1195 228.869 90.9047 228.093 91.2989ZM228.27 92.2994C228.955 91.9514 229.374 91.365 229.42 90.6849L229.501 90.6435L229.874 91.3761L230.865 90.8725L229.055 87.31C228.495 86.2086 227.427 85.9321 226.119 86.5964C224.937 87.1974 224.386 88.2003 224.736 89.1492L225.732 88.6431C225.659 88.216 225.95 87.8034 226.524 87.5114C227.228 87.1537 227.75 87.28 228.03 87.8307L228.259 88.2808L226.887 89.08C225.686 89.7868 225.262 90.6831 225.739 91.6216C226.223 92.5745 227.265 92.8103 228.27 92.2994ZM232.502 90.0407L233.531 89.5176L231.967 86.4387C231.594 85.706 231.894 84.933 232.675 84.5364C232.857 84.4439 233.18 84.3217 233.281 84.3067L232.765 83.2915C232.641 83.3188 232.437 83.4042 232.284 83.482C231.604 83.8276 231.214 84.4955 231.326 85.0832L231.25 85.1222L230.843 84.3225L229.852 84.8262L232.502 90.0407ZM239.406 86.6405C240.723 85.9713 241.031 84.5017 240.191 82.8497C239.349 81.1929 237.991 80.582 236.669 81.2536C235.956 81.6161 235.518 82.2724 235.53 82.9833L235.448 83.0247L233.993 80.1612L232.964 80.6844L236.648 87.9339L237.639 87.4302L237.22 86.6066L237.297 86.5677C237.9 86.9842 238.679 87.0103 239.406 86.6405ZM236.842 82.3286C237.713 81.8858 238.576 82.2909 239.133 83.3874C239.695 84.4935 239.511 85.4243 238.64 85.8672C237.773 86.3076 236.894 85.905 236.334 84.8157C235.784 83.7215 235.98 82.7666 236.842 82.3286ZM245.183 83.7232C246.706 82.9494 247.121 81.455 246.262 79.7647C245.408 78.084 243.949 77.5363 242.431 78.3076C240.908 79.0814 240.49 80.583 241.345 82.2637C242.203 83.9539 243.655 84.4994 245.183 83.7232ZM244.718 82.8086C243.823 83.2636 242.987 82.8631 242.408 81.7235C241.833 80.5934 242 79.6772 242.896 79.2222C243.786 78.7696 244.63 79.1724 245.204 80.3025C245.781 81.4373 245.609 82.356 244.718 82.8086ZM249 81.657L250.03 81.1338L248.465 78.0549C248.093 77.3223 248.393 76.5493 249.173 76.1527C249.355 76.0602 249.679 75.938 249.779 75.9229L249.264 74.9078C249.139 74.9351 248.935 75.0205 248.782 75.0983C248.102 75.4438 247.713 76.1117 247.824 76.6995L247.748 76.7385L247.341 75.9388L246.35 76.4425L249 81.657ZM253.175 79.5356L254.204 79.0124L252.654 75.9623C252.241 75.1483 252.466 74.3949 253.228 74.0081C253.989 73.6212 254.565 73.8528 254.99 74.6908L256.574 77.808L257.604 77.2849L255.888 73.9091C255.258 72.6689 254.261 72.2959 253.098 72.8871C252.313 73.2862 251.973 73.8985 252.014 74.6069L251.937 74.6458L251.516 73.8174L250.525 74.3211L253.175 79.5356Z" fill="#5A5A5A"/>
<path d="M20.5055 222.683L28.2425 222.226L28.1596 220.821L22.1375 218.702L22.1321 218.61L27.8633 215.802L27.7804 214.398L20.0434 214.854L20.1092 215.97L25.6962 215.64L25.7006 215.715L20.4727 218.3L20.5266 219.211L26.0222 221.163L26.0266 221.238L20.4397 221.567L20.5055 222.683ZM21.6102 226.539C21.5732 225.912 21.8519 225.438 22.3773 225.407C22.8921 225.376 23.187 225.725 23.2881 226.526L23.4635 227.947L22.9756 227.976C22.2517 228.018 21.6615 227.408 21.6102 226.539ZM20.6223 226.301C20.6676 227.068 21.0377 227.686 21.6427 228L21.6481 228.092L20.8277 228.14L20.8932 229.25L24.8824 229.014C26.1156 228.942 26.796 228.073 26.7096 226.609C26.6314 225.285 25.9323 224.379 24.9227 224.32L24.9885 225.436C25.409 225.54 25.6712 225.971 25.7092 226.614C25.7557 227.403 25.4312 227.831 24.8146 227.867L24.3106 227.897L24.1261 226.32C23.9583 224.937 23.3062 224.19 22.2553 224.252C21.1884 224.315 20.5558 225.175 20.6223 226.301ZM21.0014 231.083L21.0695 232.236L24.4849 232.034C25.3964 231.98 25.9967 232.488 26.0471 233.341C26.0974 234.193 25.655 234.628 24.7167 234.684L21.2262 234.89L21.2942 236.042L25.0743 235.819C26.463 235.737 27.2034 234.973 27.1264 233.67C27.0745 232.79 26.6489 232.234 25.9834 231.989L25.9783 231.903L26.9059 231.848L26.8404 230.738L21.0014 231.083ZM25.6235 242.571C26.7835 242.352 27.5838 241.417 27.4974 239.953C27.397 238.253 26.1939 237.286 24.3226 237.396C22.4192 237.509 21.3332 238.616 21.4335 240.316C21.5187 241.758 22.3869 242.611 23.5699 242.692L23.5038 241.571C22.8676 241.458 22.5057 240.979 22.4627 240.25C22.406 239.29 23.1269 238.65 24.3923 238.576C25.6362 238.502 26.4109 239.048 26.4679 240.014C26.5135 240.786 26.1178 241.283 25.5573 241.45L25.6235 242.571ZM21.7857 244.368L21.8538 245.52L25.2638 245.319C26.1485 245.267 26.7747 245.757 26.8304 246.701C26.8785 247.516 26.4323 247.978 25.4994 248.033L22.0142 248.239L22.0823 249.391L25.8516 249.169C27.2403 249.087 27.9832 248.274 27.9098 247.03C27.8579 246.15 27.4301 245.557 26.7592 245.311L26.7538 245.22L29.9708 245.03L29.9034 243.888L21.7857 244.368ZM27.3014 253.312C27.3517 254.164 26.7895 254.757 25.8742 254.838L25.7001 251.889C26.6154 251.899 27.2511 252.459 27.3014 253.312ZM23.9919 254.944C23.5235 254.756 23.2433 254.294 23.2022 253.597C23.1477 252.674 23.7614 252.041 24.7833 251.943L24.8476 251.939L25.091 256.062L25.4931 256.039C27.3269 255.93 28.3788 254.884 28.2829 253.259C28.1857 251.613 26.9391 250.637 25.0732 250.747C23.2073 250.858 22.1203 251.949 22.2191 253.622C22.2979 254.957 22.9964 255.852 24.0574 256.053L23.9919 254.944ZM26.7578 257.41C25.8892 257.462 25.421 258.006 25.2238 259.131L25.048 260.164C24.9431 260.757 24.734 261.043 24.3855 261.064C23.919 261.091 23.5673 260.601 23.5249 259.883C23.4837 259.186 23.7372 258.74 24.179 258.569L24.111 257.416C23.0822 257.579 22.5083 258.522 22.5903 259.911C22.6726 261.305 23.4676 262.286 24.5668 262.221C25.4247 262.17 25.8712 261.622 26.063 260.497L26.2309 259.513C26.3383 258.872 26.5408 258.564 26.8893 258.543C27.345 258.516 27.6794 258.986 27.7174 259.63C27.7561 260.284 27.5073 260.718 27.0847 260.851L27.1499 261.955C28.1727 261.782 28.7333 260.888 28.6557 259.574C28.5779 258.255 27.7926 257.349 26.7578 257.41ZM30.2525 263.837L28.7727 263.925L28.7179 262.997L27.7474 263.054L27.8022 263.982L24.5047 264.177C23.3787 264.243 22.9584 264.779 23.0341 266.061C23.0474 266.286 23.0868 266.499 23.1301 266.684L24.0899 266.628C24.0643 266.468 24.0475 266.367 24.0371 266.19C24.0032 265.616 24.2564 265.348 24.8677 265.312L27.8703 265.135L27.945 266.4L28.9154 266.343L28.8407 265.077L30.3206 264.99L30.2525 263.837ZM28.3028 270.274C28.3531 271.126 27.7909 271.719 26.8756 271.8L26.7015 268.851C27.6168 268.861 28.2524 269.421 28.3028 270.274ZM24.9933 271.906C24.5249 271.718 24.2447 271.256 24.2035 270.559C24.1491 269.636 24.7627 269.003 25.7846 268.905L25.849 268.901L26.0924 273.024L26.4945 273.001C28.3282 272.892 29.3802 271.846 29.2843 270.221C29.1871 268.575 27.9404 267.599 26.0745 267.71C24.2086 267.82 23.1217 268.912 23.2204 270.584C23.2993 271.919 23.9978 272.814 25.0588 273.015L24.9933 271.906ZM23.5796 274.754L23.6476 275.906L27.0952 275.703C27.9156 275.654 28.5043 276.238 28.5558 277.112C28.5679 277.316 28.5506 277.662 28.5241 277.76L29.6608 277.693C29.6857 277.568 29.6888 277.347 29.6787 277.175C29.6337 276.414 29.1772 275.79 28.5937 275.658L28.5886 275.572L29.4841 275.519L29.4185 274.409L23.5796 274.754ZM31.784 282.215L24.047 282.671L24.2119 285.465C24.348 287.77 25.8477 289.022 28.3195 288.876C30.7537 288.732 32.0844 287.303 31.9489 285.008L31.784 282.215ZM30.7611 283.48L30.8472 284.939C30.9419 286.542 29.9791 287.551 28.2312 287.654C26.4565 287.759 25.3934 286.885 25.2978 285.266L25.2117 283.808L30.7611 283.48ZM24.5259 290.783L24.5939 291.936L28.0415 291.732C28.8619 291.684 29.4505 292.268 29.5021 293.142C29.5142 293.345 29.4969 293.691 29.4704 293.789L30.6071 293.722C30.632 293.597 30.6351 293.376 30.625 293.204C30.58 292.443 30.1235 291.819 29.54 291.687L29.5349 291.601L30.4303 291.548L30.3648 290.438L24.5259 290.783ZM24.7123 295.49C24.7392 295.945 25.1073 296.257 25.5577 296.231C26.0081 296.204 26.337 295.851 26.3101 295.395C26.2835 294.945 25.915 294.628 25.4646 294.654C25.0142 294.681 24.6857 295.039 24.7123 295.49Z" fill="#5A5A5A"/>
<path d="M214.322 157.123L215.209 158.346L220.682 150.291L219.784 149.053L210.428 151.753L211.285 152.935L213.748 152.191L215.798 155.017L214.322 157.123ZM218.844 150.589L218.907 150.677L216.552 154.024L214.927 151.783L218.844 150.589ZM217.355 161.5C217.914 162.271 218.752 162.659 219.606 162.55L219.67 162.637L218.786 163.278L219.553 164.337L227.333 158.695L226.532 157.59L223.459 159.818L223.4 159.736C223.796 158.986 223.692 158.074 223.136 157.308C222.111 155.895 220.332 155.798 218.564 157.08C216.791 158.365 216.323 160.077 217.355 161.5ZM222.372 158.341C223.043 159.266 222.729 160.379 221.562 161.225C220.391 162.075 219.249 162.025 218.574 161.095C217.896 160.159 218.204 159.081 219.391 158.22C220.568 157.367 221.697 157.411 222.372 158.341ZM223.055 167.402C222.619 166.801 222.595 166.152 223.099 165.787C223.592 165.429 224.107 165.588 224.718 166.322L225.796 167.626L225.329 167.965C224.635 168.468 223.659 168.235 223.055 167.402ZM221.92 167.794C222.453 168.529 223.215 168.91 224.017 168.837L224.081 168.925L223.294 169.495L224.066 170.559L227.889 167.786C229.071 166.929 229.196 165.631 228.178 164.228C227.258 162.959 225.985 162.502 224.942 163.085L225.718 164.154C226.203 163.991 226.738 164.253 227.185 164.87C227.733 165.625 227.682 166.258 227.091 166.686L226.608 167.037L225.422 165.584C224.374 164.313 223.249 163.984 222.242 164.714C221.22 165.456 221.137 166.715 221.92 167.794ZM225.34 172.315L226.141 173.42L229.563 170.938C230.283 170.416 231.201 170.526 231.689 171.2C232.166 171.857 232.087 172.558 231.455 173.016L227.781 175.681L228.567 176.765L232.087 174.213C232.745 173.736 233.598 173.83 234.116 174.545C234.641 175.269 234.532 175.897 233.776 176.445L230.21 179.031L231.011 180.136L234.865 177.341C236.032 176.495 236.238 175.342 235.418 174.211C234.856 173.435 233.994 173.08 233.178 173.241L233.114 173.154C233.547 172.463 233.559 171.647 233.004 170.882C232.463 170.137 231.678 169.843 230.867 170.055L230.808 169.973L231.707 169.321L230.936 168.257L225.34 172.315ZM236.191 178.833C235.358 179.437 235.238 180.277 235.758 181.523L236.24 182.663C236.512 183.32 236.486 183.739 236.152 183.981C235.705 184.305 235.043 184.041 234.544 183.352C234.059 182.684 234.028 182.079 234.359 181.628L233.558 180.523C232.637 181.34 232.666 182.644 233.631 183.975C234.6 185.311 236.016 185.782 237.069 185.018C237.891 184.422 237.987 183.592 237.462 182.349L237.004 181.263C236.703 180.556 236.708 180.12 237.042 179.878C237.479 179.561 238.111 179.816 238.558 180.433C239.013 181.06 239.042 181.651 238.705 182.052L239.473 183.11C240.381 182.287 240.371 181.04 239.458 179.781C238.541 178.517 237.182 178.114 236.191 178.833Z" fill="#5A5A5A"/>
<path d="M175.851 362.164L170.96 354.419L169.554 355.308L170.8 362.749L170.709 362.806L164.53 358.48L163.124 359.369L168.016 367.113L169.132 366.408L165.6 360.816L165.675 360.768L171.335 364.701L172.247 364.125L171.128 357.324L171.203 357.277L174.735 362.869L175.851 362.164ZM177.874 360.886L179.022 360.161L175.331 354.316L174.182 355.042L177.874 360.886ZM174.109 353.654C174.538 353.383 174.662 352.877 174.411 352.48C174.157 352.077 173.647 351.971 173.217 352.243C172.788 352.514 172.665 353.02 172.919 353.422C173.17 353.819 173.68 353.925 174.109 353.654ZM183.374 351.909C182.484 350.834 181.06 350.54 179.595 351.465C177.894 352.54 177.58 354.337 178.763 356.21C179.966 358.115 181.733 358.606 183.434 357.532C184.878 356.62 185.264 355.234 184.672 353.964L183.55 354.673C183.797 355.396 183.508 356.044 182.778 356.505C181.817 357.111 180.744 356.731 179.944 355.464C179.157 354.219 179.28 353.106 180.246 352.496C181.019 352.007 181.759 352.133 182.252 352.617L183.374 351.909ZM187.425 354.853L188.579 354.125L186.423 350.711C185.863 349.826 186.013 348.898 186.958 348.301C187.773 347.786 188.506 347.984 189.096 348.917L191.299 352.406L192.453 351.677L190.07 347.904C189.192 346.514 187.927 346.21 186.681 346.997C185.801 347.552 185.432 348.334 185.561 349.168L185.47 349.226L183.436 346.006L182.293 346.728L187.425 354.853ZM194.293 350.515L195.442 349.789L191.75 343.945L190.602 344.671L194.293 350.515ZM190.529 343.283C190.958 343.012 191.081 342.506 190.83 342.109C190.576 341.706 190.066 341.6 189.637 341.871C189.208 342.142 189.084 342.648 189.338 343.051C189.589 343.448 190.099 343.554 190.529 343.283ZM199.092 345.967C198.1 346.594 197.07 346.201 196.335 345.036C195.599 343.871 195.686 342.773 196.679 342.146C197.661 341.525 198.733 341.892 199.469 343.056C200.208 344.226 200.08 345.343 199.092 345.967ZM201.203 349.273C202.856 348.229 203.367 346.72 202.523 345.384L198.801 339.491L197.696 340.19L198.286 341.123L198.194 341.181C197.467 340.755 196.513 340.802 195.708 341.31C194.216 342.252 194.021 344.012 195.147 345.794C196.252 347.543 197.904 348.114 199.396 347.172C200.201 346.663 200.624 345.908 200.578 345.051L200.664 344.997L201.373 346.118C201.861 346.891 201.58 347.707 200.62 348.313C199.841 348.805 199.18 348.84 198.816 348.477L197.635 349.222C198.386 350.137 199.744 350.195 201.203 349.273ZM205.718 342.075C205.09 342.472 204.44 342.454 204.108 341.928C203.783 341.413 203.975 340.909 204.746 340.346L206.116 339.353L206.424 339.842C206.882 340.566 206.587 341.526 205.718 342.075ZM206.036 343.233C206.803 342.748 207.232 342.012 207.211 341.207L207.302 341.149L207.821 341.97L208.932 341.268L206.41 337.276C205.63 336.041 204.343 335.833 202.878 336.759C201.552 337.596 201.014 338.837 201.53 339.915L202.646 339.21C202.514 338.715 202.81 338.198 203.454 337.791C204.243 337.293 204.872 337.384 205.261 338.001L205.58 338.506L204.055 339.597C202.719 340.561 202.318 341.662 202.983 342.714C203.657 343.782 204.909 343.945 206.036 343.233ZM210.767 340.11L211.92 339.381L209.761 335.962C209.185 335.05 209.367 334.139 210.221 333.6C211.074 333.061 211.777 333.27 212.37 334.209L214.577 337.703L215.731 336.974L213.341 333.191C212.463 331.801 211.249 331.471 209.945 332.295C209.065 332.851 208.732 333.609 208.858 334.438L208.772 334.492L208.186 333.564L207.075 334.265L210.767 340.11ZM225.894 330.555L227.171 329.748L219.483 323.77L218.19 324.587L220.285 334.097L221.52 333.318L220.935 330.811L223.887 328.947L225.894 330.555ZM219.663 325.623L219.754 325.566L222.944 328.131L220.604 329.609L219.663 325.623ZM229.108 320.348L227.885 321.121L229.347 326.646L229.256 326.704L224.89 323.013L223.656 323.792L229.456 328.304L230.696 327.521L229.108 320.348ZM233.193 318.984C234.046 318.445 234.981 318.688 235.587 319.589L232.636 321.454C232.124 320.501 232.34 319.523 233.193 318.984ZM236.772 321.476C236.845 322.068 236.527 322.622 235.829 323.063C234.906 323.646 233.9 323.373 233.215 322.371L233.175 322.307L237.302 319.7L237.047 319.298C235.888 317.462 234.204 316.972 232.578 317.999C230.931 319.039 230.633 320.887 231.813 322.754C232.993 324.622 234.743 325.123 236.417 324.065C237.754 323.221 238.281 321.987 237.883 320.775L236.772 321.476ZM241.48 320.837C241.936 320.549 242.049 319.99 241.764 319.54C241.479 319.089 240.926 318.95 240.47 319.238C240.019 319.523 239.901 320.085 240.186 320.536C240.471 320.987 241.029 321.122 241.48 320.837Z" fill="#5A5A5A"/>
</svg>
